<svg id="Layer_1" data-name="Layer 1" xmlns="http://www.w3.org/2000/svg" viewBox="0 0 75.21 320"><defs><style>.cls-1{fill:none;stroke:#fff;stroke-miterlimit:10;stroke-width:8px;}.cls-2{fill:#fff;}</style></defs><title>arrow_2</title><line class="cls-1" x1="37.55" y1="47.76" x2="37.35" y2="223"/><polygon class="cls-2" points="7.9 70.19 37.54 57.64 67.15 70.26 37.6 0 7.9 70.19"/><line class="cls-1" x1="37.6" y1="258.31" x2="37.6" y2="161"/><polygon class="cls-2" points="33.64 255.06 0 274.48 0 283.59 33.64 264.16 33.64 273.27 0 292.69 0 301.8 33.64 282.37 33.64 291.47 0 310.9 0 320 33.64 300.57 33.64 309.88 41.57 309.88 41.57 300.57 75.21 320 75.21 310.9 41.57 291.47 41.57 282.37 75.21 301.8 75.21 292.69 41.57 273.27 41.57 264.16 75.21 283.59 75.21 274.48 41.57 255.06 33.64 255.06"/></svg>